<?xml version="1.0" standalone="no"?>
<!DOCTYPE svg PUBLIC "-//W3C//DTD SVG 20010904//EN"
 "http://www.w3.org/TR/2001/REC-SVG-20010904/DTD/svg10.dtd">
<svg version="1.0" xmlns="http://www.w3.org/2000/svg"
 width="500.000000pt" height="500.000000pt" viewBox="0 0 500.000000 500.000000"
 preserveAspectRatio="xMidYMid meet">

<g transform="translate(0.000000,500.000000) scale(0.100000,-0.100000)"
fill="#000000" stroke="none">
<path d="M0 2500 l0 -2500 2500 0 2500 0 0 2500 0 2500 -2500 0 -2500 0 0
-2500z m2743 749 l237 -164 0 -52 0 -53 -45 0 -45 0 0 -40 c0 -33 -3 -40 -20
-40 -19 0 -20 -8 -22 -187 l-3 -188 -28 48 c-16 26 -33 47 -37 47 -4 0 -21
-21 -37 -47 l-28 -48 -3 188 c-2 179 -3 187 -22 187 -17 0 -20 7 -20 41 l0 40
-37 -3 c-36 -3 -38 -5 -41 -40 -3 -30 -7 -38 -23 -38 -18 0 -19 -9 -19 -187
l0 -188 -34 53 -33 54 -29 -49 -29 -48 -3 182 c-2 179 -3 182 -25 185 -18 2
-23 11 -25 41 -3 35 -5 37 -38 37 -33 0 -34 -1 -34 -40 0 -33 -3 -40 -20 -40
-19 0 -20 -8 -22 -187 l-3 -188 -30 48 c-16 26 -33 47 -36 47 -4 0 -21 -21
-38 -47 l-31 -48 0 188 c0 180 -1 187 -20 187 -17 0 -20 7 -20 40 l0 40 -45 0
-45 0 0 53 0 54 243 167 c133 92 249 165 257 163 9 -2 123 -78 253 -168z
m1013 -527 c-126 -1 -233 1 -237 5 -5 5 99 6 229 3 l237 -5 -229 -3z m-2276
-12 c-12 -23 -25 -27 -16 -5 5 13 -23 15 -209 15 -200 0 -214 -1 -209 -17 5
-15 4 -16 -5 -3 -6 8 -11 18 -11 23 0 4 104 7 230 7 228 0 231 0 220 -20z
m2080 -72 c0 -6 -6 -5 -15 2 -8 7 -15 14 -15 16 0 2 7 1 15 -2 8 -4 15 -11 15
-16z m-2490 2 c0 -5 -2 -10 -4 -10 -3 0 -8 5 -11 10 -3 6 -1 10 4 10 6 0 11
-4 11 -10z m2554 -86 c3 -8 2 -12 -4 -9 -6 3 -10 10 -10 16 0 14 7 11 14 -7z
m253 -51 c-3 -10 -5 -2 -5 17 0 19 2 27 5 18 2 -10 2 -26 0 -35z m-957 -48 c0
-31 3 -35 25 -35 24 0 25 -3 25 -55 l0 -55 -491 0 -490 0 3 53 c3 48 5 52 31
55 24 3 27 8 27 38 l0 34 435 0 435 0 0 -35z m-1790 15 c-10 -7 31 -10 125
-10 94 0 135 3 125 10 -8 5 -10 10 -4 10 16 0 23 -10 17 -25 -2 -8 -11 -11
-19 -8 -12 4 -14 -43 -16 -308 l-3 -314 -5 310 -5 310 -30 0 -30 0 -5 -310 -5
-310 -5 315 -5 315 -5 -315 -5 -315 -5 315 -5 315 -5 -315 -5 -315 -3 311 -2
310 -25 0 -25 0 -2 -310 -3 -311 -5 315 -5 315 -5 -315 -5 -315 -5 315 c-3
173 -6 311 -8 306 -1 -5 -9 -3 -17 4 -16 13 -11 30 8 30 7 0 6 -4 -3 -10z
m2750 -328 l-5 -317 -3 311 -2 311 -126 0 c-69 0 -129 4 -134 9 -5 5 49 8 133
6 l142 -3 -5 -317z m-1948 33 c3 -79 2 -85 -17 -85 -18 0 -20 7 -20 85 0 73 2
85 17 85 14 0 17 -13 20 -85z m128 70 c0 -8 -7 -15 -15 -15 -8 0 -15 7 -15 15
0 8 7 15 15 15 8 0 15 -7 15 -15z m552 -93 c3 -56 1 -62 -17 -62 -18 0 -20 6
-18 77 2 49 7 80 15 85 14 8 16 1 20 -100z m33 78 c-5 -8 -11 -8 -17 -2 -6 6
-7 16 -3 22 5 8 11 8 17 2 6 -6 7 -16 3 -22z m757 -55 c3 -74 1 -85 -14 -85
-14 0 -17 13 -20 85 -3 74 -1 85 14 85 14 0 17 -13 20 -85z m-1857 -5 c0 -73
-2 -80 -20 -80 -18 0 -20 7 -20 80 0 73 2 80 20 80 18 0 20 -7 20 -80z m901
58 c-9 -12 -16 -38 -16 -58 0 -20 7 -46 16 -58 19 -28 1 -29 -26 -2 -31 31
-27 93 6 119 34 27 39 26 20 -1z m79 -3 c16 -15 25 -36 25 -55 0 -31 -37 -80
-60 -80 -7 0 -5 7 4 16 22 21 21 102 -1 126 -25 28 4 22 32 -7z m220 -55 c0
-73 -2 -80 -20 -80 -18 0 -20 7 -20 80 0 73 2 80 20 80 18 0 20 -7 20 -80z
m-1127 43 c2 -13 -5 -27 -18 -36 -16 -11 -18 -16 -7 -20 8 -3 19 -20 25 -37
11 -29 10 -31 -11 -28 -15 2 -23 11 -25 28 -2 14 -8 30 -13 37 -7 7 -6 14 1
18 7 4 10 21 8 37 -4 25 -2 29 16 26 13 -2 22 -12 24 -25z m98 -11 c7 -4 13
-31 15 -60 3 -42 1 -52 -11 -50 -11 2 -17 20 -20 61 -5 58 -4 62 16 49z m142
-4 c7 -7 12 -34 12 -60 0 -39 -3 -48 -17 -48 -15 0 -18 10 -18 60 0 62 3 68
23 48z m204 -60 c3 -42 1 -48 -17 -48 -18 0 -20 5 -16 52 2 29 8 56 15 60 12
8 14 3 18 -64z m70 0 c3 -42 1 -48 -17 -48 -18 0 -20 5 -16 52 2 29 8 56 15
60 12 8 14 3 18 -64z m56 60 c5 -7 11 -34 13 -60 4 -43 2 -48 -16 -48 -18 0
-20 7 -20 60 0 61 4 70 23 48z m116 -15 c6 -15 -9 -43 -23 -43 -4 0 -7 15 -7
34 0 35 18 40 30 9z m26 11 c0 -8 -4 -12 -10 -9 -5 3 -10 10 -10 16 0 5 5 9
10 9 6 0 10 -7 10 -16z m715 7 c3 -5 1 -12 -5 -16 -5 -3 -10 1 -10 9 0 18 6
21 15 7z m160 -57 c0 -45 -3 -54 -17 -54 -15 0 -18 9 -18 54 0 34 5 56 13 59
19 7 22 -1 22 -59z m51 58 c7 -4 13 -31 15 -60 4 -47 2 -52 -16 -52 -18 0 -20
7 -20 60 0 61 2 65 21 52z m86 -4 c-19 -19 -15 -85 6 -97 15 -10 15 -10 -3
-11 -29 0 -45 19 -45 55 0 34 8 49 30 58 23 9 25 8 12 -5z m122 -3 c-4 -9 4
-23 20 -36 30 -24 32 -62 4 -67 -12 -2 -16 1 -13 10 3 8 -6 25 -20 38 -29 28
-32 45 -7 59 22 14 22 14 16 -4z m-1784 -16 c0 -5 -7 -9 -15 -9 -15 0 -20 12
-9 23 8 8 24 -1 24 -14z m122 -34 c3 -50 1 -55 -17 -55 -18 0 -20 5 -17 55 3
37 8 55 17 55 9 0 14 -18 17 -55z m188 51 c0 -3 -4 -8 -10 -11 -5 -3 -10 -1
-10 4 0 6 5 11 10 11 6 0 10 -2 10 -4z m262 -23 c0 -16 1 -34 1 -40 -1 -7 7
-13 17 -13 46 0 66 -30 38 -58 -16 -16 -33 -15 -19 1 12 16 5 27 -18 27 -9 0
-22 4 -30 9 -12 8 -12 12 -2 25 11 13 11 17 -3 22 -24 9 -20 54 6 54 4 0 9
-12 10 -27z m613 -15 c0 -40 2 -43 27 -43 21 1 24 -2 16 -12 -13 -16 -50 -17
-66 -1 -21 21 -12 98 12 98 6 0 11 -17 11 -42z m53 19 c2 -10 -3 -17 -12 -17
-10 0 -16 9 -16 21 0 24 23 21 28 -4z m52 -8 c0 -38 -24 -35 -28 4 -2 19 1 27
12 27 11 0 16 -10 16 -31z m48 6 c4 -15 -12 -34 -29 -35 -3 0 -4 14 -1 30 5
33 25 36 30 5z m74 -17 c3 -35 7 -43 28 -49 21 -5 22 -7 8 -13 -46 -20 -88 27
-69 77 15 39 29 33 33 -15z m48 38 c0 -2 3 -11 6 -20 4 -10 1 -16 -9 -16 -8 0
-17 9 -20 20 -3 13 0 20 9 20 8 0 14 -2 14 -4z m370 -6 c0 -5 -2 -10 -4 -10
-3 0 -8 5 -11 10 -3 6 -1 10 4 10 6 0 11 -4 11 -10z m-1522 -60 c21 -37 21
-40 4 -40 -20 0 -57 54 -47 70 11 17 19 11 43 -30z m-308 5 c-10 -12 -10 -18
0 -30 10 -12 9 -15 -8 -15 -26 0 -35 25 -16 45 20 20 41 20 24 0z m1130 -20
c0 -19 -5 -25 -22 -25 -21 1 -21 2 -5 11 9 5 17 17 17 24 0 8 2 15 5 15 3 0 5
-11 5 -25z m218 -9 c14 -14 7 -42 -13 -49 -8 -4 -11 1 -8 13 4 14 -1 19 -23
22 -18 2 -30 10 -32 20 -3 15 2 17 30 12 18 -4 39 -12 46 -18z m409 -8 c-3 -7
-5 -2 -5 12 0 14 2 19 5 13 2 -7 2 -19 0 -25z m-1201 -27 c0 -11 -4 -17 -8
-15 -4 3 -8 12 -8 20 0 8 4 14 8 14 4 0 8 -9 8 -19z m718 -20 c-9 -10 -26 18
-18 30 5 9 9 8 14 -7 4 -10 6 -21 4 -23z m-550 -107 c3 -8 2 -12 -4 -9 -6 3
-10 10 -10 16 0 14 7 11 14 -7z m37 -7 c-10 -9 -11 -8 -5 6 3 10 9 15 12 12 3
-3 0 -11 -7 -18z m273 8 c3 -8 1 -15 -4 -15 -6 0 -10 7 -10 15 0 8 2 15 4 15
2 0 6 -7 10 -15z m65 -27 c-2 -31 -3 -35 -6 -15 -3 15 -9 25 -15 21 -6 -4 -6
2 1 15 17 31 21 26 20 -21z m174 8 c12 10 16 12 10 4 -10 -11 -10 -17 0 -29
10 -14 10 -14 -5 -3 -14 11 -18 10 -27 -5 -8 -14 -10 -9 -9 27 1 31 2 36 5 17
4 -28 5 -28 26 -11z m-819 5 c4 -5 -3 -7 -14 -4 -15 4 -20 0 -20 -15 0 -11 8
-23 18 -25 16 -4 16 -5 -1 -6 -20 -1 -32 21 -23 44 6 17 32 20 40 6z m72 -24
c1 -24 1 -24 -3 -3 -2 14 -12 27 -21 30 -12 3 -11 4 3 3 14 -2 20 -10 21 -30z
m130 15 c1 -7 0 -8 -3 -2 -2 5 -11 10 -19 10 -20 0 -17 -38 4 -43 16 -4 16 -5
-1 -6 -20 -1 -32 22 -23 45 7 18 38 15 42 -4z m152 11 c-22 -5 -24 -43 -3 -43
7 0 19 8 24 18 6 9 11 12 11 6 0 -18 -28 -37 -45 -30 -15 5 -21 37 -8 49 3 4
13 6 22 6 13 -1 13 -2 -1 -6z m102 -23 c0 -23 -5 -30 -19 -30 -11 0 -22 4 -25
9 -4 5 3 7 14 4 16 -4 20 0 20 21 0 14 2 26 5 26 3 0 5 -13 5 -30z m50 26 c0
-3 -4 -8 -10 -11 -5 -3 -10 -1 -10 4 0 6 5 11 10 11 6 0 10 -2 10 -4z m206
-29 c1 -24 1 -24 -3 -3 -2 14 -12 27 -21 30 -12 3 -11 4 3 3 14 -2 20 -10 21
-30z m41 9 c-7 -14 -13 -23 -15 -21 -7 6 9 45 18 45 4 0 3 -11 -3 -24z m-457
-6 c0 -5 -2 -10 -4 -10 -3 0 -8 5 -11 10 -3 6 -1 10 4 10 6 0 11 -4 11 -10z
m320 -5 c0 -12 -19 -12 -23 0 -4 9 -1 12 9 8 7 -3 14 -7 14 -8z m64 -11 c3 -8
2 -12 -4 -9 -6 3 -10 10 -10 16 0 14 7 11 14 -7z m-554 -4 c0 -5 -4 -10 -10
-10 -5 0 -10 5 -10 10 0 6 5 10 10 10 6 0 10 -4 10 -10z m-197 -7 c-7 -2 -19
-2 -25 0 -7 3 -2 5 12 5 14 0 19 -2 13 -5z m1557 -77 c0 -2 -8 -10 -17 -17
-16 -13 -17 -12 -4 4 13 16 21 21 21 13z m-2556 -41 c3 -8 1 -15 -4 -15 -6 0
-10 7 -10 15 0 8 2 15 4 15 2 0 6 -7 10 -15z"/>
<path d="M2251 3229 c-212 -147 -231 -163 -231 -190 l0 -29 465 0 465 0 0 29
c0 26 -20 42 -222 182 -121 85 -227 157 -233 161 -7 5 -105 -57 -244 -153z
m279 -19 c41 -41 13 -112 -45 -112 -37 0 -65 29 -65 68 0 57 69 85 110 44z"/>
<path d="M2462 3191 c-8 -4 -12 -19 -10 -32 2 -19 9 -24 33 -24 33 0 45 25 25
50 -14 17 -29 19 -48 6z"/>
<path d="M2110 2955 c0 -26 0 -26 78 -23 71 3 77 5 80 26 3 21 1 22 -77 22
-80 0 -81 0 -81 -25z"/>
<path d="M2404 2965 c-11 -27 7 -35 82 -35 72 0 74 1 74 25 0 24 -2 25 -75 25
-57 0 -77 -4 -81 -15z"/>
<path d="M2702 2958 c3 -21 9 -23 81 -26 77 -3 77 -3 77 23 0 25 -1 25 -81 25
-78 0 -80 -1 -77 -22z"/>
<path d="M2150 2768 l0 -133 20 25 c19 25 19 25 34 5 14 -18 15 -9 16 108 l0
127 -35 0 -35 0 0 -132z"/>
<path d="M2450 2768 c1 -126 2 -132 16 -104 l16 29 19 -29 19 -29 0 133 0 132
-35 0 -35 0 0 -132z"/>
<path d="M2740 2775 c0 -121 7 -146 29 -107 10 16 12 15 31 -8 l20 -25 0 133
0 132 -40 0 -40 0 0 -125z"/>
<path d="M2080 2440 c0 -20 7 -20 405 -20 398 0 405 0 405 20 0 20 -7 20 -405
20 -398 0 -405 0 -405 -20z"/>
<path d="M2024 2375 c-3 -8 -3 -19 1 -25 4 -7 155 -10 461 -10 l454 0 0 25 0
25 -455 0 c-389 0 -456 -2 -461 -15z"/>
</g>
</svg>
